<?xml version="1.0" encoding="UTF-8" standalone="no"?>
<svg width="11px" height="16px" viewBox="0 0 11 16" version="1.1" xmlns="http://www.w3.org/2000/svg" xmlns:xlink="http://www.w3.org/1999/xlink" xmlns:sketch="http://www.bohemiancoding.com/sketch/ns">
    <!-- Generator: Sketch 3.3.3 (12072) - http://www.bohemiancoding.com/sketch -->
    <title>angel</title>
    <desc>Created with Sketch.</desc>
    <defs></defs>
    <g id="Main" stroke="none" stroke-width="1" fill="none" fill-rule="evenodd" sketch:type="MSPage">
        <g id="_ielts-ru" sketch:type="MSArtboardGroup" transform="translate(-582.000000, -3444.000000)" fill="#FFFFFF">
            <g id="footer" sketch:type="MSLayerGroup" transform="translate(0.000000, 3318.000000)">
                <g id="social" transform="translate(492.000000, 119.000000)" sketch:type="MSShapeGroup">
                    <path d="M90,18.3568627 C90,17.6980392 90.1433892,17.1856209 90.4301676,16.8196078 C90.6657356,16.4954248 91.0446927,16.2601307 91.5670391,16.1137255 C91.4031657,15.6954248 91.3212291,15.3869281 91.3212291,15.1882353 C91.3212291,14.8431373 91.5004655,14.4771242 91.8589385,14.0901961 C92.2378957,13.724183 92.5912477,13.5411765 92.9189944,13.5411765 C93.0931099,13.5411765 93.2979516,13.5882353 93.5335196,13.6823529 C93.0418994,12.2496732 92.6885475,11.1620915 92.4734637,10.4196078 C92.2276536,9.57254902 92.1047486,8.97124183 92.1047486,8.61568627 C92.1047486,8.11372549 92.2276536,7.72156863 92.4734637,7.43921569 C92.7295158,7.14640523 93.0726257,7 93.5027933,7 C94.2402235,7 95.1261639,8.54248366 96.1606145,11.627451 L96.4217877,12.3960784 C96.4832402,12.2392157 96.5446927,12.0666667 96.6061453,11.8784314 C97.6303538,8.8248366 98.5521415,7.29803922 99.3715084,7.29803922 C99.7811918,7.29803922 100.103818,7.43921569 100.339385,7.72156863 C100.585196,8.00392157 100.708101,8.36993464 100.708101,8.81960784 C100.708101,9.1124183 100.585196,9.70326797 100.339385,10.5921569 C100.124302,11.3555556 99.7863128,12.4013072 99.325419,13.7294118 C99.9092179,13.875817 100.329143,14.1581699 100.585196,14.5764706 C100.861732,15.0261438 101,15.7215686 101,16.6627451 C101,18.524183 100.457169,20.0457516 99.3715084,21.227451 C98.2653631,22.4091503 96.8621974,23 95.1620112,23 C94.4860335,23 93.8356611,22.8745098 93.2108939,22.6235294 C92.6066108,22.4039216 92.0586592,22.0588235 91.5670391,21.5882353 C91.0446927,21.0862745 90.6554935,20.5686275 90.3994413,20.0352941 C90.1331471,19.4705882 90,18.9111111 90,18.3568627 L90,18.3568627 Z M91,18.2624254 C91,18.5275017 91.0720412,18.8402916 91.2161235,19.2007952 C91.3499142,19.5400928 91.5506003,19.8952949 91.8181818,20.2664016 C92.2401372,20.8283632 92.7392796,21.2577866 93.3156089,21.554672 C93.9022298,21.8515573 94.5660377,22 95.3070326,22 C96.6346484,22 97.7512864,21.4857522 98.6569468,20.4572565 C99.5523156,19.4393638 100,18.1510934 100,16.5924453 C100,16.1047051 99.9691252,15.7282969 99.9073756,15.4632207 C99.8559177,15.2299536 99.7581475,15.0497018 99.6140652,14.9224652 C99.3361921,14.6785951 98.7907376,14.4665341 97.9777015,14.2862823 C97.1646655,14.0954274 96.3001715,14 95.3842196,14 C95.1578045,14 95.0137221,14.0318091 94.9519726,14.0954274 C94.8799314,14.1272366 94.8439108,14.2332671 94.8439108,14.4135189 C94.8439108,14.8482439 95.0806175,15.1557323 95.5540309,15.3359841 C96.0686106,15.5586481 96.9176672,15.6699801 98.1012007,15.6699801 L98.5334477,15.6699801 C98.6981132,15.6699801 98.8164666,15.7282969 98.8885077,15.8449304 C98.9708405,15.9297548 99.0274443,16.0941021 99.058319,16.3379722 C98.8833619,16.518224 98.6003431,16.6825712 98.2092624,16.8310139 C97.838765,16.9688535 97.5660377,17.1066932 97.3910806,17.2445328 C96.9794168,17.5520212 96.6500858,17.9178264 96.4030875,18.3419483 C96.1663808,18.7554672 96.0480274,19.14778 96.0480274,19.5188867 C96.0480274,19.7415507 96.0994854,20.0119284 96.2024014,20.3300199 C96.3156089,20.6799205 96.3722127,20.907886 96.3722127,21.0139165 L96.3722127,21.1093439 L96.3104631,21.3479125 C95.8576329,21.3161034 95.5283019,21.0987409 95.32247,20.695825 C95.1475129,20.3565275 95.0497427,19.9218025 95.0291595,19.3916501 C94.9982847,19.4022531 94.9365352,19.4075547 94.8439108,19.4075547 L94.6740995,19.4075547 C94.6843911,19.4605699 94.6895369,19.5241882 94.6895369,19.5984095 C94.6895369,19.916501 94.5711835,20.1868787 94.3344768,20.4095427 C94.0977702,20.6322068 93.8198971,20.7435388 93.5008576,20.7435388 C93.0171527,20.7435388 92.5283019,20.5049702 92.0343053,20.027833 C91.5403087,19.5400928 91.2933105,19.0629556 91.2933105,18.5964215 C91.2933105,18.5115971 91.3087479,18.4267727 91.3396226,18.3419483 C91.3499142,18.267727 91.432247,18.1510934 91.5866209,17.9920477 C91.8439108,18.3207422 92.0188679,18.5487078 92.1114923,18.6759443 C92.5437393,19.3015242 92.9348199,19.6143141 93.2847341,19.6143141 C93.3773585,19.6143141 93.464837,19.582505 93.5471698,19.5188867 C93.6089194,19.4552684 93.6397942,19.4022531 93.6397942,19.359841 C93.6397942,19.2750166 93.5780446,19.1212724 93.4545455,18.8986083 C93.3722127,18.7395626 93.1818182,18.4585818 92.8833619,18.055666 C92.5951973,17.6739563 92.3636364,17.4088801 92.1886792,17.2604374 C92.0343053,17.1119947 91.9210978,17.0377734 91.8490566,17.0377734 C91.6535163,17.0377734 91.4631218,17.1544069 91.2778731,17.387674 C91.0926244,17.620941 91,17.9125249 91,18.2624254 L91,18.2624254 Z M93,15.7088608 C93,15.8551336 93.091954,16.1082982 93.2758621,16.4683544 C93.4367816,16.7721519 93.6954023,17.1547117 94.0517241,17.6160338 C94.408046,18.0661041 94.7298851,18.4149086 95.0172414,18.6624473 C95.2931034,18.8874824 95.5,19 95.637931,19 C95.7183908,19 95.7988506,18.9606188 95.8793103,18.8818565 C95.9597701,18.7918425 96,18.7018284 96,18.6118143 C96,18.4767932 95.8965517,18.1504923 95.6896552,17.6329114 C95.4482759,17.0590717 95.183908,16.5414909 94.8965517,16.0801688 C94.6436782,15.6863572 94.4195402,15.4106892 94.2241379,15.2531646 C94.0402299,15.0843882 93.862069,15 93.6896552,15 C93.5632184,15 93.4195402,15.0843882 93.2586207,15.2531646 C93.0862069,15.4219409 93,15.5738397 93,15.7088608 L93,15.7088608 Z M93,8.56707317 C93,8.98170732 93.1490683,9.63414634 93.447205,10.5243902 C93.7204969,11.3902439 94.1304348,12.5487805 94.6770186,14 C94.8012422,13.9268293 94.9751553,13.8902439 95.1987578,13.8902439 C95.2111801,13.8902439 95.2515528,13.8932927 95.3198758,13.8993902 C95.3881988,13.9054878 95.4534161,13.9085366 95.515528,13.9085366 C95.5652174,13.9085366 95.7267081,13.9207317 96,13.945122 L94.7142857,10.2865854 C94.3664596,9.31097561 94.0931677,8.67682927 93.8944099,8.38414634 C93.7329193,8.12804878 93.5714286,8 93.4099379,8 C93.2981366,8 93.2049689,8.04878049 93.1304348,8.14634146 C93.0434783,8.25609756 93,8.39634146 93,8.56707317 L93,8.56707317 Z M96,16 C96.1016949,16.3066667 96.2090395,16.64 96.3220339,17 C96.5480226,16.6933333 96.7740113,16.44 97,16.24 C96.9435028,16.2266667 96.8587571,16.21 96.7457627,16.19 C96.6327684,16.17 96.5480226,16.1533333 96.4915254,16.14 C96.2655367,16.0866667 96.1016949,16.04 96,16 L96,16 Z M97,14.7798165 L98.2484472,15 C98.8074534,13.4831804 99.2360248,12.266055 99.5341615,11.3486239 C99.8447205,10.3577982 100,9.7706422 100,9.58715596 C100,9.39143731 99.9565217,9.23853211 99.8695652,9.12844037 C99.8198758,9.04281346 99.7267081,9 99.5900621,9 C99.4161491,9 99.2236025,9.16513761 99.0124224,9.49541284 C98.7763975,9.85015291 98.5093168,10.4678899 98.2111801,11.3486239 L97,14.7798165 Z" id="angel"></path>
                </g>
            </g>
        </g>
    </g>
</svg>