<?xml version="1.0" encoding="UTF-8" standalone="no"?>
<svg width="14px" height="14px" viewBox="0 0 14 14" version="1.1" xmlns="http://www.w3.org/2000/svg" xmlns:xlink="http://www.w3.org/1999/xlink" xmlns:sketch="http://www.bohemiancoding.com/sketch/ns">
    <!-- Generator: Sketch 3.3.3 (12072) - http://www.bohemiancoding.com/sketch -->
    <title>check</title>
    <desc>Created with Sketch.</desc>
    <defs></defs>
    <g id="Main" stroke="none" stroke-width="1" fill="none" fill-rule="evenodd" sketch:type="MSPage">
        <g id="_ielts-ru" sketch:type="MSArtboardGroup" transform="translate(-358.000000, -2164.000000)" fill="#F4D03F">
            <g id="plan" sketch:type="MSLayerGroup" transform="translate(0.000000, 1854.000000)">
                <path d="M365.000046,310 C361.140202,310 358,313.140156 358,316.999954 C358,320.859752 361.140202,323.999908 365.000046,323.999908 C368.859844,323.999908 372,320.859752 372,316.999954 C372,313.140156 368.859844,310 365.000046,310 L365.000046,310 Z M365.000046,322.852375 C361.772952,322.852375 359.147533,320.227048 359.147533,316.999954 C359.147533,313.772906 361.772952,311.147533 365.000046,311.147533 C368.227094,311.147533 370.852467,313.772906 370.852467,316.999954 C370.852467,320.227048 368.227094,322.852375 365.000046,322.852375 Z M368.028203,314.313303 L363.872021,318.469531 L361.971797,316.569308 C361.747707,316.345263 361.384443,316.345263 361.160353,316.569308 C360.936309,316.793398 360.936309,317.156661 361.160353,317.380752 L363.466299,319.686697 C363.578344,319.798696 363.725182,319.854742 363.872021,319.854742 C364.018859,319.854742 364.165697,319.798696 364.277742,319.686697 L368.839647,315.124793 C369.063691,314.900702 369.063691,314.537439 368.839647,314.313349 C368.615557,314.089258 368.252248,314.089258 368.028203,314.313303 Z" id="check" sketch:type="MSShapeGroup"></path>
            </g>
        </g>
    </g>
</svg>