<?xml version="1.0" encoding="UTF-8" standalone="no"?>
<svg width="8px" height="14px" viewBox="0 0 8 14" version="1.1" xmlns="http://www.w3.org/2000/svg" xmlns:xlink="http://www.w3.org/1999/xlink" xmlns:sketch="http://www.bohemiancoding.com/sketch/ns">
    <!-- Generator: Sketch 3.3.3 (12072) - http://www.bohemiancoding.com/sketch -->
    <title>fb</title>
    <desc>Created with Sketch.</desc>
    <defs></defs>
    <g id="Main" stroke="none" stroke-width="1" fill="none" fill-rule="evenodd" sketch:type="MSPage">
        <g id="_ielts-ru" sketch:type="MSArtboardGroup" transform="translate(-543.000000, -3445.000000)" fill="#FFFFFF">
            <g id="footer" sketch:type="MSLayerGroup" transform="translate(0.000000, 3318.000000)">
                <g id="social" transform="translate(492.000000, 119.000000)" sketch:type="MSShapeGroup">
                    <path d="M58.6987435,8.00291293 L56.7799073,8 C54.6241606,8 53.2310223,9.35232983 53.2310223,11.4454189 L53.2310223,13.0339877 L51.3017183,13.0339877 C51.1350036,13.0339877 51,13.1618655 51,13.3196009 L51,15.6212561 C51,15.7789915 51.1351575,15.9067237 51.3017183,15.9067237 L53.2310223,15.9067237 L53.2310223,21.7145324 C53.2310223,21.8722678 53.3660259,22 53.5327407,22 L56.0499336,22 C56.2166484,22 56.3516519,21.8721222 56.3516519,21.7145324 L56.3516519,15.9067237 L58.6074583,15.9067237 C58.7741731,15.9067237 58.9091766,15.7789915 58.9091766,15.6212561 L58.9101003,13.3196009 C58.9101003,13.2438646 58.8782351,13.1713326 58.8217399,13.1177346 C58.7652447,13.0641366 58.6882757,13.0339877 58.608228,13.0339877 L56.3516519,13.0339877 L56.3516519,11.6873381 C56.3516519,11.0400841 56.5146722,10.7115051 57.4058189,10.7115051 L58.6984356,10.7110681 C58.8649964,10.7110681 59,10.5831903 59,10.4256005 L59,8.28838051 C59,8.1309364 58.8651504,8.00320423 58.6987435,8.00291293 L58.6987435,8.00291293 Z" id="fb"></path>
                </g>
            </g>
        </g>
    </g>
</svg>