<?xml version="1.0" encoding="UTF-8" standalone="no"?>
<svg width="140px" height="28px" viewBox="0 0 140 28" version="1.1" xmlns="http://www.w3.org/2000/svg" xmlns:xlink="http://www.w3.org/1999/xlink" xmlns:sketch="http://www.bohemiancoding.com/sketch/ns">
    <!-- Generator: Sketch 3.3.3 (12072) - http://www.bohemiancoding.com/sketch -->
    <title>logo</title>
    <desc>Created with Sketch.</desc>
    <defs></defs>
    <g id="Main" stroke="none" stroke-width="1" fill="none" fill-rule="evenodd" sketch:type="MSPage">
        <g id="_ielts-ru" sketch:type="MSArtboardGroup" transform="translate(-113.000000, -26.000000)" fill="#FFFFFF">
            <g id="header" sketch:type="MSLayerGroup">
                <path d="M116.676226,53.7301749 L116.676226,53.0157659 L119.492634,52.6518158 L119.492634,36.8105734 L118.818382,36.8105734 C116.587905,36.8105734 115.062761,36.9009334 114.24295,37.0803985 L113.885975,39.8981881 L113,39.8981881 L113,35.6512668 L128.603494,35.6512668 L128.603494,39.8981881 L127.704287,39.8981881 L127.347312,37.0803985 C127.082966,37.0176484 126.505344,36.9614872 125.615061,36.9116009 C124.72447,36.8626559 123.750482,36.8378696 122.692791,36.8378696 L122.044697,36.8378696 L122.044697,52.6518158 L124.861413,53.0157659 L124.861413,53.7301749 L116.676226,53.7301749 Z M134.166455,53.0157659 L136.440939,52.6518158 L136.440939,36.7161346 L134.166455,36.3659895 L134.166455,35.6512668 L147.469,35.6512668 L147.469,39.9788219 L146.596258,39.9788219 L146.17312,37.053416 C145.185899,36.9276022 143.757692,36.8648521 141.888806,36.8648521 L138.993001,36.8648521 L138.993001,43.9289356 L143.779849,43.9289356 L144.189755,41.7719037 L145.036032,41.7719037 L145.036032,47.3262217 L144.189755,47.3262217 L143.779849,45.142521 L138.993001,45.142521 L138.993001,52.5169033 L142.483969,52.5169033 C144.758453,52.5169033 146.2479,52.4450545 146.953541,52.3010432 L147.707188,48.9577222 L148.57993,48.9577222 L148.328817,53.7301749 L134.166455,53.7301749 L134.166455,53.0157659 Z M156.09979,48.8635971 L156.9593,48.8635971 L157.422136,51.3036317 C157.748029,51.726253 158.310265,52.0986744 159.108227,52.4227783 C159.905881,52.7462546 160.692764,52.9078359 161.468569,52.9078359 C162.702594,52.9078359 163.665503,52.5868696 164.357911,51.9439956 C165.049704,51.3014354 165.395908,50.4138364 165.395908,49.2811985 C165.395908,48.6342458 165.261427,48.0996157 164.992465,47.6769943 C164.723503,47.2543729 164.371144,46.8973253 163.934773,46.6052239 C163.498402,46.3134363 163.00233,46.0662013 162.447173,45.8638325 C161.891707,45.6614636 161.320855,45.4572123 160.734616,45.2501373 C160.14807,45.043376 159.577526,44.8143384 159.02206,44.5627108 C158.466903,44.311397 157.970831,43.9919994 157.53446,43.6054593 C157.098089,43.2192329 156.745422,42.7404502 156.476768,42.1697388 C156.207806,41.5990274 156.073325,40.8955997 156.073325,40.0597694 C156.073325,38.6218527 156.602325,37.4939211 157.660017,36.6756608 C158.718016,35.8580281 160.185921,35.4492117 162.063425,35.4492117 C163.491632,35.4492117 165.043241,35.6424818 166.718254,36.0287081 L166.718254,39.7902581 L165.858744,39.7902581 L165.395908,37.5792611 C164.496701,36.9141109 163.38577,36.5815358 162.063425,36.5815358 C160.882022,36.5815358 159.958812,36.8265746 159.293177,37.3163385 C158.627542,37.8064162 158.294878,38.4825477 158.294878,39.3450467 C158.294878,39.9298769 158.429051,40.4149345 158.698321,40.8011609 C158.966975,41.187701 159.319642,41.5180798 159.756013,41.7919837 C160.192384,42.066515 160.690302,42.3024551 161.250384,42.5001177 C161.810157,42.6977802 162.382856,42.9023453 162.969402,43.1134991 C163.555641,43.3249667 164.128339,43.5627892 164.688421,43.8279081 C165.248194,44.0930269 165.74642,44.4303083 166.182791,44.8391246 C166.619162,45.2482548 166.971521,45.7471174 167.240483,46.3353989 C167.509445,46.9243078 167.643926,47.649698 167.643926,48.5128245 C167.643926,50.2566476 167.119235,51.6067143 166.07016,52.5639658 C165.021084,53.5212174 163.509173,54 161.534733,54 C160.582594,54 159.62584,53.91466 158.665085,53.7439799 C157.704023,53.5732999 156.84913,53.3392423 156.09979,53.0427485 L156.09979,48.8635971 Z M197.718443,50.1173425 C197.718443,51.6631893 198.423776,52.4359558 199.834442,52.4359558 C200.927216,52.4359558 201.950133,52.2966507 202.901964,52.0180406 L202.901964,42.001255 L201.024461,41.6639736 L201.024461,41.0574947 L205.083819,41.0574947 L205.083819,52.7867284 L206.657585,53.1233822 L206.657585,53.7301749 L203.034291,53.7301749 L202.928429,52.7057808 C202.302492,53.055926 201.579926,53.359636 200.759807,53.6156561 C199.939996,53.87199 199.252511,54 198.697046,54 C196.581355,54 195.523355,52.7594321 195.523355,50.2789238 L195.523355,42.001255 L193.936663,41.6639736 L193.936663,41.0574947 L197.718443,41.0574947 L197.718443,50.1173425 Z M215.869999,54 C215.023722,54 214.391015,53.7439799 213.972493,53.2313123 C213.553663,52.7192721 213.344402,52.0001569 213.344402,51.0745941 L213.344402,42.1898188 L211.718012,42.1898188 L211.718012,41.5833399 L213.370867,41.0574947 L214.706445,38.1860538 L215.539489,38.1860538 L215.539489,41.0574947 L218.382363,41.0574947 L218.382363,42.1898188 L215.539489,42.1898188 L215.539489,50.8317515 C215.539489,51.4159542 215.669354,51.8564593 215.929392,52.1529532 C216.18943,52.449447 216.531018,52.5978508 216.954464,52.5978508 C217.465615,52.5978508 218.086936,52.5256883 218.818734,52.3823045 L218.818734,53.2582948 C218.510074,53.4741548 218.065086,53.6517374 217.483156,53.7910424 C216.901533,53.9303475 216.363609,54 215.869999,54 Z M233.439624,47.3262217 C233.439624,45.3850498 233.162045,43.9785081 232.60658,43.1065966 C232.051115,42.2349988 231.182681,41.7988862 230.001587,41.7988862 C228.84665,41.7988862 228.011452,42.2168013 227.495685,43.0526316 C226.980226,43.8887756 226.722342,45.313201 226.722342,47.3262217 C226.722342,49.3668523 226.984534,50.8116715 227.508918,51.660993 C228.033609,52.5103145 228.864499,52.9348184 230.001587,52.9348184 C231.165448,52.9348184 232.029266,52.494627 232.593348,51.6136168 C233.157429,50.7329202 233.439624,49.3037885 233.439624,47.3262217 Z M235.819969,47.3262217 C235.819969,51.7751981 233.880611,54 230.001587,54 C228.132701,54 226.722342,53.4292886 225.770204,52.2878657 C224.818066,51.1464429 224.341997,49.4923523 224.341997,47.3262217 C224.341997,45.1873872 224.818066,43.5514942 225.770204,42.4191701 C226.722342,41.286846 228.167783,40.7205271 230.107449,40.7205271 C231.993876,40.7205271 233.417775,41.275551 234.37853,42.3852851 C235.339284,43.495333 235.819969,45.142521 235.819969,47.3262217 Z M191.231348,34.749549 C190.905454,34.9020315 190.573099,35.0554553 190.235511,35.2073104 C189.96778,35.3281042 189.695433,35.4470155 189.420316,35.564358 C189.352306,35.5935367 189.284604,35.6227155 189.215979,35.6515805 L189.18859,35.6515805 C188.063811,36.0742019 186.897181,36.5275708 185.633921,36.8651659 C185.657924,36.8657934 185.681927,36.8667346 185.706239,36.8673621 C184.885812,37.0794572 184.045998,37.2388423 183.190181,37.3204173 L183.190181,37.3191623 C183.174487,37.320731 183.1591,37.323241 183.143098,37.3248098 C183.018772,37.3361048 182.893523,37.343321 182.768582,37.3514785 C182.691955,37.3564985 182.617175,37.3637148 182.539933,37.3674798 C182.331903,37.3775198 182.122642,37.3825398 181.912765,37.3825398 C181.702889,37.3825398 181.493628,37.3775198 181.285597,37.3674798 C181.208355,37.3637148 181.133268,37.3564985 181.056949,37.3514785 C180.932008,37.343321 180.806759,37.3361048 180.682433,37.3248098 C180.667354,37.323241 180.653198,37.3210448 180.638119,37.319476 L180.638119,37.3210448 C179.74599,37.2357048 178.872017,37.0656522 178.018354,36.8403796 C178.04205,36.8394384 178.066361,36.8388109 178.090365,36.8378696 C176.865879,36.5030983 175.731561,36.0629069 174.636941,35.6515805 L174.609244,35.6515805 C174.540927,35.6224018 174.472917,35.5935367 174.404907,35.564358 C174.138407,35.4504667 173.874061,35.3353204 173.614331,35.2186054 C173.268127,35.0629853 172.92777,34.9057965 172.594183,34.749549 C173.077945,35.2760216 173.597405,35.7595105 174.145485,36.2003294 L174.145485,39.8981881 L175.03146,39.8981881 L175.387819,37.0863597 C176.970818,38.0859675 178.74646,38.735744 180.638119,38.937799 L180.638119,52.6518158 L177.82171,53.0160797 L177.82171,53.7304887 L186.006898,53.7304887 L186.006898,53.0160797 L183.190181,52.6518158 L183.190181,38.937799 C185.088918,38.7341752 186.871023,38.0796925 188.45833,37.0731822 C188.469101,37.0756922 188.482949,37.0778885 188.492797,37.0803985 L188.849772,39.8981881 L189.748979,39.8981881 L189.748979,36.1463644 C190.271824,35.7202918 190.767588,35.2540591 191.231348,34.749549 Z M191.058092,43.9910581 L189.686508,42.2409601 L189.686508,41.2846498 L188.914396,41.2846498 L188.914396,42.2409601 L187.542813,43.9910581 L191.058092,43.9910581 Z M244.960065,47.2051141 L246.507366,47.2051141 C248.429183,47.2051141 249.389938,46.3244176 249.389938,44.5627108 C249.389938,43.7626481 249.145287,43.1586791 248.655985,42.7492352 C248.166684,42.3404189 247.384416,42.1361675 246.308876,42.1361675 L244.960065,42.1361675 L244.960065,47.2051141 Z M246.890806,48.2834732 L244.960065,48.2834732 L244.960065,52.7732371 L246.586454,53.1233822 L246.586454,53.7301749 L241.112122,53.7301749 L241.112122,53.1233822 L242.764977,52.7867284 L242.764977,42.001255 L241.112122,41.6639736 L241.112122,41.0574947 L246.507366,41.0574947 C250.015875,41.0574947 251.769975,42.2036238 251.769975,44.4952545 C251.769975,45.3580673 251.525632,46.0862813 251.036331,46.679269 C250.547029,47.2725704 249.861699,47.6726018 248.980032,47.8793631 L251.928768,52.8137109 L253,53.1233822 L253,53.7301749 L249.985101,53.7301749 L246.890806,48.2834732 Z M181.913073,26 L197.530108,30.4627814 L190.563866,32.4535258 L190.030558,32.6063221 L190.057331,32.5655346 C190.057331,32.5655346 181.85091,30.3153188 181.813982,30.3890501 C181.777053,30.4627814 188.936553,32.9188172 188.936553,32.9188172 L181.913073,34.9258765 L173.261049,32.4535258 L166.295423,30.4627814 L181.913073,26 Z" id="logo" sketch:type="MSShapeGroup"></path>
            </g>
        </g>
    </g>
</svg>