<?xml version="1.0" encoding="UTF-8" standalone="no"?>
<svg width="16px" height="16px" viewBox="0 0 16 16" version="1.1" xmlns="http://www.w3.org/2000/svg" xmlns:xlink="http://www.w3.org/1999/xlink" xmlns:sketch="http://www.bohemiancoding.com/sketch/ns">
    <!-- Generator: Sketch 3.3.3 (12072) - http://www.bohemiancoding.com/sketch -->
    <title>phone</title>
    <desc>Created with Sketch.</desc>
    <defs></defs>
    <g id="Main" stroke="none" stroke-width="1" fill="none" fill-rule="evenodd" sketch:type="MSPage">
        <g id="_ielts-ru" sketch:type="MSArtboardGroup" transform="translate(-883.000000, -33.000000)" fill="#FFFFFF">
            <g id="header" sketch:type="MSLayerGroup">
                <g id="call" transform="translate(883.000000, 31.000000)" sketch:type="MSShapeGroup">
                    <path d="M13.4068984,4.23915931 C15.1157807,6.01025326 15.933201,7.90764189 15.9994347,10.1256247 C16.0150508,10.6356609 15.7059603,10.971907 15.2167467,10.9983533 C14.7003395,11.0258791 14.3503242,10.7063643 14.3376698,10.1866132 C14.3102071,9.09448803 14.0630424,8.05741442 13.5234804,7.10750574 C12.2908881,4.94430459 10.4137291,3.81763733 7.94100568,3.67623047 C7.6663783,3.66057856 7.40979016,3.63197336 7.21647402,3.41176725 C6.96930938,3.13030283 6.94803922,2.80647033 7.08077579,2.47670089 C7.21432008,2.14450271 7.48652429,1.99500004 7.84003973,2.00012738 C9.44903311,2.02765315 10.9341749,2.47670089 12.273118,3.36831973 C12.7367537,3.67730991 13.1586567,4.04728855 13.4068984,4.23915931 L13.4068984,4.23915931 Z M7.87886273,5.00011041 C7.73084156,4.99795729 7.5704629,5.02729355 7.43802291,5.08838834 C7.09496839,5.24825753 6.93324653,5.65196761 7.02565902,6.05460112 C7.10651996,6.40986599 7.41921804,6.65478343 7.81277705,6.65908967 C8.73206643,6.67066269 9.54524263,6.96187223 10.2211433,7.59273651 C10.9639356,8.28550299 11.3112883,9.15482535 11.3470176,10.1662537 C11.353465,10.3460392 11.4206252,10.5511239 11.5264697,10.6951139 C11.7467553,10.9957433 12.1384339,11.0713716 12.4981441,10.9338411 C12.816215,10.8129972 13.0029205,10.5269013 12.9999654,10.149567 C12.9892198,8.74061882 12.4771901,7.53702452 11.48886,6.50029704 C10.495963,5.54350417 9.29137692,5.02002677 7.87886273,5.00011041 L7.87886273,5.00011041 Z M12.5641378,17.3236916 C12.893783,16.9555957 13.2619649,16.6210814 13.6108784,16.2691255 C14.1264372,15.7484807 14.1306033,15.1171989 13.6179087,14.5994176 C13.0057478,13.9832345 12.3912433,13.3691339 11.7749162,12.7578969 C11.2695124,12.2575572 10.6388642,12.2585985 10.1363246,12.7568556 C9.75278005,13.1371866 9.36741287,13.5164764 8.99220064,13.9048774 C8.96564155,13.9314303 8.94116552,13.9527767 8.91590835,13.9691771 L8.65344205,14.2313217 C8.58001398,14.2781797 8.50684629,14.2771385 8.41232718,14.2253343 C8.16418196,14.0910079 7.90067413,13.9821932 7.66268386,13.8327681 C6.55110785,13.1351041 5.61841512,12.2351695 4.79352104,11.2214741 C4.38341745,10.7169693 4.01836016,10.1812257 3.76604881,9.57519519 C3.7243875,9.47445042 3.72334596,9.40234111 3.77932836,9.32502536 L4.04179466,9.06262037 C4.05403267,9.04517877 4.06809336,9.02799749 4.08658057,9.01081621 C4.20140958,8.89991887 4.31649896,8.78798024 4.4292449,8.67526063 C4.6948358,8.41181436 4.95808324,8.14524422 5.22159107,7.88101698 C5.74652367,7.35308314 5.74548213,6.73299517 5.21846647,6.2011565 C4.91954653,5.89996348 4.61854351,5.60007207 4.31728011,5.30018066 C4.00820522,4.99091764 3.70095301,4.67879108 3.38875351,4.37265193 C2.88334966,3.87647743 2.25165994,3.87543614 1.74703724,4.37161064 C1.36167006,4.75090039 0.989322043,5.14242528 0.597705664,5.51468632 C0.233689908,5.86143576 0.0475158979,6.28237709 0.0108018624,6.77672934 C-0.0490862806,7.5780017 0.147242675,8.3355399 0.4216866,9.07485553 C0.990363576,10.6042497 1.85379437,11.9576658 2.89949342,13.201226 C4.31337436,14.883169 6.0037823,16.2152388 7.98009102,17.1753078 C8.86903937,17.607443 9.79261869,17.9398747 10.794313,17.9948027 C11.4819851,18.0335908 12.0842515,17.8596954 12.5641378,17.3236916 L12.5641378,17.3236916 Z" id="phone"></path>
                </g>
            </g>
        </g>
    </g>
</svg>