<?xml version="1.0" encoding="UTF-8" standalone="no"?>
<svg width="16px" height="16px" viewBox="0 0 16 16" version="1.1" xmlns="http://www.w3.org/2000/svg" xmlns:xlink="http://www.w3.org/1999/xlink" xmlns:sketch="http://www.bohemiancoding.com/sketch/ns">
    <!-- Generator: Sketch 3.3.3 (12072) - http://www.bohemiancoding.com/sketch -->
    <title>time</title>
    <desc>Created with Sketch.</desc>
    <defs></defs>
    <g id="Main" stroke="none" stroke-width="1" fill="none" fill-rule="evenodd" sketch:type="MSPage">
        <g id="_ielts-ru" sketch:type="MSArtboardGroup" transform="translate(-143.000000, -1133.000000)" fill="#6C7A89">
            <g id="tutors" sketch:type="MSLayerGroup" transform="translate(0.000000, 600.000000)">
                <g id="1" transform="translate(113.000000, 177.000000)" sketch:type="MSShapeGroup">
                    <path d="M38,372 C42.418278,372 46,368.418278 46,364 C46,359.581722 42.418278,356 38,356 C33.581722,356 30,359.581722 30,364 C30,368.418278 33.581722,372 38,372 Z M38,370 C41.3137085,370 44,367.313708 44,364 C44,360.686292 41.3137085,358 38,358 C34.6862915,358 32,360.686292 32,364 C32,367.313708 34.6862915,370 38,370 Z M37,360 L39,360 L39,365 L37,365 L37,360 Z M39,363 L42,363 L42,365 L39,365 L39,363 Z" id="time"></path>
                </g>
            </g>
        </g>
    </g>
</svg>