<?xml version="1.0" encoding="UTF-8" standalone="no"?>
<svg width="14px" height="11px" viewBox="0 0 14 11" version="1.1" xmlns="http://www.w3.org/2000/svg" xmlns:xlink="http://www.w3.org/1999/xlink" xmlns:sketch="http://www.bohemiancoding.com/sketch/ns">
    <!-- Generator: Sketch 3.3.3 (12072) - http://www.bohemiancoding.com/sketch -->
    <title>twitter</title>
    <desc>Created with Sketch.</desc>
    <defs></defs>
    <g id="Main" stroke="none" stroke-width="1" fill="none" fill-rule="evenodd" sketch:type="MSPage">
        <g id="_ielts-ru" sketch:type="MSArtboardGroup" transform="translate(-500.000000, -3447.000000)" fill="#FFFFFF">
            <g id="footer" sketch:type="MSLayerGroup" transform="translate(0.000000, 3318.000000)">
                <g id="social" transform="translate(492.000000, 119.000000)" sketch:type="MSShapeGroup">
                    <path d="M22,11.3014731 C21.4847214,11.5223277 20.9318349,11.6721087 20.3509254,11.738978 C20.9440734,11.3954043 21.3981134,10.8504483 21.6133066,10.2030862 C21.05692,10.5212575 20.442772,10.7522907 19.7883853,10.8775323 C19.2643681,10.3368027 18.5190041,10 17.6922707,10 C16.1061963,10 14.8201843,11.2439416 14.8201843,12.7772887 C14.8201843,12.9947578 14.8455537,13.2071597 14.8945537,13.410268 C12.5080074,13.2943199 10.391785,12.1883211 8.97542643,10.5077155 C8.72784106,10.9172955 8.58699442,11.3945413 8.58699442,11.9039827 C8.58699442,12.8678345 9.09440375,13.7182827 9.86426775,14.2158417 C9.39359705,14.200618 8.95092639,14.0753763 8.56338654,13.8672008 L8.56338654,13.9018967 C8.56338654,15.2473814 9.55370515,16.3703077 10.8668249,16.6258803 C10.6262396,16.6885011 10.3725464,16.7231971 10.1100917,16.7231971 C9.92463713,16.7231971 9.74529043,16.7054287 9.56944374,16.6715736 C9.93511427,17.7758907 10.995433,18.5789419 12.2517063,18.6009587 C11.269257,19.3456376 10.0304837,19.7882097 8.68499458,19.7882097 C8.45317068,19.7882097 8.2248239,19.7746676 8,19.7501282 C9.2711426,20.5396595 10.7802398,21 12.4021837,21 C17.6853165,21 20.5731643,16.7672087 20.5731643,13.096323 L20.5635336,12.7366848 C21.1277894,12.3473957 21.6159373,11.8582895 22,11.3014731 L22,11.3014731 Z" id="twitter"></path>
                </g>
            </g>
        </g>
    </g>
</svg>